<svg id="Layer_1" data-name="Layer 1" xmlns="http://www.w3.org/2000/svg" viewBox="0 0 517.5 297.64"><defs><style>.cls-1{fill:#c06528;}.cls-2{font-size:58.54px;fill:#014462;font-family:Montserrat-Regular, Montserrat;letter-spacing:0.11em;}.cls-3{letter-spacing:0.06em;}.cls-4{font-size:24.74px;fill:#3f3f3e;font-family:MinionPro-Semibold, Minion Pro;font-weight:700;letter-spacing:0.11em;}.cls-5{letter-spacing:0.09em;}.cls-6{letter-spacing:0.12em;}.cls-7{letter-spacing:0.1em;}.cls-8{letter-spacing:0.1em;}.cls-9{letter-spacing:0.1em;}.cls-10{letter-spacing:0.11em;}.cls-11{letter-spacing:0.1em;}.cls-12{letter-spacing:0.11em;}.cls-13{letter-spacing:0.11em;}.cls-14{letter-spacing:0.09em;}.cls-15{letter-spacing:0.09em;}.cls-16{letter-spacing:0.02em;}.cls-17{letter-spacing:0.1em;}</style></defs><title>Techvaria logo</title><path class="cls-1" d="M397.71,125.92a80,80,0,0,0-5.19-11.59A64.25,64.25,0,0,0,385.24,104,56.59,56.59,0,0,0,365,89a76.43,76.43,0,0,0-24.74-6,113.15,113.15,0,0,0-25.67,1c-17,2.52-33.56,8-49.35,15a140.29,140.29,0,0,0-42.45,29.18A140.66,140.66,0,0,1,264.9,98.24c15.74-7.19,32.25-13,49.43-15.75a114.83,114.83,0,0,1,26-1.4,78.49,78.49,0,0,1,25.5,5.86,59,59,0,0,1,21.33,15.3,67,67,0,0,1,7.76,10.7,82.91,82.91,0,0,1,5.57,12Z"/><text class="cls-2" transform="translate(28.17 174.95)">TECH<tspan class="cls-3" x="184.23" y="0">V</tspan><tspan x="227.96" y="0">ARIA</tspan></text><text class="cls-4" transform="translate(118.14 211.07)">E<tspan class="cls-5" x="16.95" y="0">m</tspan><tspan class="cls-6" x="39.91" y="0">p</tspan><tspan class="cls-7" x="56.09" y="0">o</tspan><tspan class="cls-8" x="71.36" y="0">w</tspan><tspan class="cls-9" x="90.79" y="0">e</tspan><tspan class="cls-10" x="104.05" y="0">ri</tspan><tspan class="cls-11" x="126.04" y="0">n</tspan><tspan class="cls-12" x="142.3" y="0">g </tspan><tspan class="cls-13" x="164.97" y="0">w</tspan><tspan class="cls-10" x="184.71" y="0">h</tspan><tspan class="cls-14" x="200.8" y="0">a</tspan><tspan class="cls-15" x="214.31" y="0">t</tspan><tspan class="cls-16" x="224.5" y="0">’</tspan><tspan class="cls-12" x="230.83" y="0">s n</tspan><tspan class="cls-17" x="267.33" y="0">e</tspan><tspan class="cls-12" x="280.59" y="0">xt</tspan></text></svg>